<?xml version="1.0" encoding="UTF-8"?>
<svg id="Camada_1" data-name="Camada 1" xmlns="http://www.w3.org/2000/svg" version="1.1" xmlns:xlink="http://www.w3.org/1999/xlink" viewBox="0 0 300 300">
  <defs>
    <style>
      .cls-1 {
        fill: url(#Gradiente_sem_nome_26);
      }

      .cls-1, .cls-2 {
        stroke-width: 0px;
      }

      .cls-2 {
        fill: url(#Gradiente_sem_nome_26-2);
      }
    </style>
    <linearGradient id="Gradiente_sem_nome_26" data-name="Gradiente sem nome 26" x1="99.69" y1="299.85" x2="99.69" y2="-.15" gradientUnits="userSpaceOnUse">
      <stop offset="0" stop-color="#442156"/>
      <stop offset="1" stop-color="#fff"/>
    </linearGradient>
    <linearGradient id="Gradiente_sem_nome_26-2" data-name="Gradiente sem nome 26" x1="200.38" y1="299.84" x2="200.38" y2="-.15" xlink:href="#Gradiente_sem_nome_26"/>
  </defs>
  <path class="cls-1" d="M119.86,201.9c-10.49,0-20.17-5.4-20.17-19.28s9.68-19.28,20.17-19.28h79.48v75.96c0,37.41-26.23,60.54-64.56,60.54h-69.39c-18.56,0-32.28-3.09-46.4-15.43C2.86,270.54.04,256.27.04,236.99v-96.4c0-24.68,5.65-37.4,20.98-56.3l47.61-58.23C84.76,6.41,98.88-.15,125.11-.15h54.06c10.49,0,20.17,5.4,20.17,19.28s-9.68,19.28-20.17,19.28h-48.41c-22.19,0-20.58-.38-33.89,15.81l-43.98,53.6c-12.51,15.04-12.51,31.24-12.51,50.13v75.57c0,21.21,4.84,27.76,27.84,27.76h64.15c14.52,0,26.63-3.09,26.63-20.05v-39.33h-39.13Z"/>
  <path class="cls-2" d="M180.21,97.79c10.49,0,20.17,5.4,20.17,19.28s-9.68,19.28-20.17,19.28h-79.48V60.39C100.73,22.98,126.95-.15,165.28-.15h69.39c18.56,0,32.28,3.09,46.4,15.42,16.14,13.88,18.97,28.15,18.97,47.43v96.4c0,24.67-5.65,37.4-20.98,56.29l-47.61,58.23c-16.14,19.67-30.26,26.22-56.49,26.22h-54.06c-10.49,0-20.17-5.4-20.17-19.28s9.68-19.28,20.17-19.28h48.41c22.19,0,20.58.38,33.89-15.81l43.98-53.6c12.5-15.03,12.5-31.23,12.5-50.12v-75.57c0-21.21-4.84-27.77-27.84-27.77h-64.15c-14.52,0-26.63,3.09-26.63,20.05v39.34h39.13Z"/>
</svg>